#Comment line ignore any data following # character 
#Hierarchical Translation and Rotation (.htr) file 
[Header]	
#Header keywords are followed by a single value 
FileType HTR		#Single word string
DataType HTRS		#Translation followed by rotation and scale data
FileVersion 1		#integer
NumSegments 23		#integer
NumFrames 6		#integer
DataFrameRate 30		#integer, data frame rate in this file
EulerRotationOrder ZYX
CalibrationUnits mm
RotationUnits Degrees
GlobalAxisofGravity Y
BoneLengthAxis Y
ScaleFactor 1.00
[SegmentNames&Hierarchy]
#CHILD	PARENT
MASTER GLOBAL
weapon MASTER
arm_lock_bottom_part1 weapon
arm_lock_bottom_part2 weapon
arm_lock_bottom_part3 weapon
arm_lock_bottom_part4 weapon
arm_lock_top_part1 weapon
arm_lock_top_part2 weapon
arm_lock_top_part3 weapon
front_lower_left_part1 weapon
front_lower_right_part1 weapon
front_top_left_part weapon
front_top_right_part1 weapon
scope_part1 weapon
scope_part2 weapon
front_lower_left_part2 front_lower_left_part1
front_lower_left_part3 front_lower_left_part2
front_lower_right_part2 front_lower_right_part1
front_lower_right_part3 front_lower_right_part2
front_top_left_part2 front_top_left_part
front_top_left_part3 front_top_left_part2
front_top_right_part2 front_top_right_part1
front_top_right_part3 front_top_right_part2
[BasePosition]
#SegmentName Tx, Ty, Tz, Rx, Ry, Rz, BoneLength
MASTER 0.000000 0.000000 0.000000 -90.000000 0.000000 0.000000 10.000000 
weapon 0.000000 0.000000 0.000000 0.000000 0.000000 0.000000 10.000000 
arm_lock_bottom_part1 0.000000 0.000000 0.000000 0.000000 0.000000 0.000000 10.000000 
arm_lock_bottom_part2 0.000000 0.000000 0.000000 0.000000 0.000000 0.000000 10.000000 
arm_lock_bottom_part3 0.000000 0.000000 0.000000 0.000000 0.000000 0.000000 10.000000 
arm_lock_bottom_part4 0.000000 0.000000 0.000000 0.000000 0.000000 0.000000 10.000000 
arm_lock_top_part1 0.000000 0.000000 0.000000 0.000000 0.000000 0.000000 10.000000 
arm_lock_top_part2 0.000000 0.000000 0.000000 0.000000 0.000000 0.000000 10.000000 
arm_lock_top_part3 0.000000 0.000000 0.000000 0.000000 0.000000 0.000000 10.000000 
front_lower_left_part1 0.000000 0.000000 0.000000 0.000000 0.000000 0.000000 10.000000 
front_lower_right_part1 0.000000 0.000000 0.000000 0.000000 0.000000 0.000000 10.000000 
front_top_left_part 0.000000 0.000000 0.000000 0.000000 0.000000 0.000000 10.000000 
front_top_right_part1 0.000000 0.000000 0.000000 0.000000 0.000000 0.000000 10.000000 
scope_part1 0.000000 0.000000 0.000000 0.000000 0.000000 0.000000 10.000000 
scope_part2 0.000000 0.000000 0.000000 0.000000 0.000000 0.000000 10.000000 
front_lower_left_part2 0.000000 0.000000 0.000000 0.000000 0.000000 0.000000 10.000000 
front_lower_left_part3 0.000000 0.000000 0.000000 0.000000 0.000000 0.000000 10.000000 
front_lower_right_part2 0.000000 0.000000 0.000000 0.000000 0.000000 0.000000 10.000000 
front_lower_right_part3 0.000000 0.000000 0.000000 0.000000 0.000000 0.000000 10.000000 
front_top_left_part2 0.000000 0.000000 0.000000 0.000000 0.000000 0.000000 10.000000 
front_top_left_part3 0.000000 0.000000 0.000000 0.000000 0.000000 0.000000 10.000000 
front_top_right_part2 0.000000 0.000000 0.000000 0.000000 0.000000 0.000000 10.000000 
front_top_right_part3 0.000000 0.000000 0.000000 0.000000 0.000000 0.000000 10.000000 
#Beginning of Data. Separated by tabs
#Fr	Tx	Ty	Tz	Rx	Ry	Rz	SF
[MASTER]
78 0.000000 -0.000019 0.000002 0.002458 -0.000000 0.000000 0.000019
79 0.000000 -0.000019 0.000002 0.002458 -0.000000 0.000000 0.000019
80 0.000000 -0.000019 0.000002 0.002458 -0.000000 0.000000 0.000019
81 0.000000 -0.000019 0.000002 0.002458 -0.000000 0.000000 0.000019
82 0.000000 -0.000019 0.000002 0.002458 -0.000000 0.000000 0.000019
83 0.000000 -0.000019 0.000002 0.002458 -0.000000 0.000000 0.000019
[weapon]
78 10.182457 -168.977844 -13.084106 -0.002473 -0.000000 -0.000020 169.789246
79 10.182457 -168.977844 -13.084106 -0.002473 -0.000000 -0.000020 169.789246
80 10.182457 -168.977844 -13.084106 -0.002473 -0.000000 -0.000020 169.789246
81 10.182457 -168.977844 -13.084106 -0.002473 -0.000000 -0.000020 169.789246
82 10.182457 -168.977844 -13.084106 -0.002473 -0.000000 -0.000020 169.789246
83 10.182457 -168.977844 -13.084106 -0.002473 -0.000000 -0.000020 169.789246
[arm_lock_bottom_part1]
78 -48.820000 98.566208 -83.498993 179.999985 0.000004 9.388626 138.096970
79 -48.820000 98.566208 -83.498993 179.999985 0.000004 9.388626 138.096970
80 -48.820000 98.566208 -83.498993 179.999985 0.000004 9.388626 138.096970
81 -48.820000 98.566208 -83.498993 179.999985 0.000004 9.388626 138.096970
82 -48.820000 98.566208 -83.498993 179.999985 0.000004 9.388626 138.096970
83 -48.820000 98.566208 -83.498993 179.999985 0.000004 9.388626 138.096970
[arm_lock_bottom_part2]
78 -49.022766 58.782005 -78.526535 -179.999985 -0.000001 6.576765 109.658440
79 -49.022766 58.782005 -78.526535 -179.999985 -0.000001 6.576765 109.658440
80 -49.022766 58.782005 -78.526535 -179.999985 -0.000001 6.576765 109.658440
81 -49.022766 58.782005 -78.526535 -179.999985 -0.000001 6.576765 109.658440
82 -49.022766 58.782005 -78.526535 -179.999985 -0.000001 6.576765 109.658440
83 -49.022766 58.782005 -78.526535 -179.999985 -0.000001 6.576765 109.658440
[arm_lock_bottom_part3]
78 -51.266422 -16.798210 -66.920395 -179.999985 -0.000001 4.326176 85.957924
79 -51.266422 -16.798210 -66.920395 -179.999985 -0.000001 4.326176 85.957924
80 -51.266422 -16.798210 -66.920395 -179.999985 -0.000001 4.326176 85.957924
81 -51.266422 -16.798210 -66.920395 -179.999985 -0.000001 4.326176 85.957924
82 -51.266422 -16.798210 -66.920395 -179.999985 -0.000001 4.326176 85.957924
83 -51.266422 -16.798210 -66.920395 -179.999985 -0.000001 4.326176 85.957924
[arm_lock_bottom_part4]
78 -40.078102 -93.503113 -59.330063 -179.999985 -0.000000 1.322129 117.767326
79 -40.078102 -93.503113 -59.330063 -179.999985 -0.000000 1.322129 117.767326
80 -40.078102 -93.503113 -59.330063 -179.999985 -0.000000 1.322129 117.767326
81 -40.078102 -93.503113 -59.330063 -179.999985 -0.000000 1.322129 117.767326
82 -40.078102 -93.503113 -59.330063 -179.999985 -0.000000 1.322129 117.767326
83 -40.078102 -93.503113 -59.330063 -179.999985 -0.000000 1.322129 117.767326
[arm_lock_top_part1]
78 -47.532558 61.554489 78.379364 0.000000 -0.000000 -9.999999 110.415680
79 -47.532558 61.554489 78.379364 0.000000 -0.000000 -9.999999 110.415680
80 -47.532558 61.554489 78.379364 0.000000 -0.000000 -9.999999 110.415680
81 -47.532558 61.554489 78.379364 0.000000 -0.000000 -9.999999 110.415680
82 -47.532558 61.554489 78.379364 0.000000 -0.000000 -9.999999 110.415680
83 -47.532558 61.554489 78.379364 0.000000 -0.000000 -9.999999 110.415680
[arm_lock_top_part2]
78 -45.622673 13.709908 63.393555 0.000000 -0.000000 -7.722126 79.297745
79 -45.622673 13.709908 63.393555 0.000000 -0.000000 -7.722126 79.297745
80 -45.622673 13.709908 63.393555 0.000000 -0.000000 -7.722126 79.297745
81 -45.622673 13.709908 63.393555 0.000000 -0.000000 -7.722126 79.297745
82 -45.622673 13.709908 63.393555 0.000000 -0.000000 -7.722126 79.297745
83 -45.622673 13.709908 63.393555 0.000000 -0.000000 -7.722126 79.297745
[arm_lock_top_part3]
78 -43.788544 -73.747208 72.061615 0.000000 0.000000 -4.533067 112.022163
79 -43.788544 -73.747208 72.061615 0.000000 0.000000 -4.533067 112.022163
80 -43.788544 -73.747208 72.061615 0.000000 0.000000 -4.533067 112.022163
81 -43.788544 -73.747208 72.061615 0.000000 0.000000 -4.533067 112.022163
82 -43.788544 -73.747208 72.061615 0.000000 0.000000 -4.533067 112.022163
83 -43.788544 -73.747208 72.061615 0.000000 0.000000 -4.533067 112.022163
[front_lower_left_part1]
78 -46.798553 475.070984 -43.538895 0.000000 0.000003 -0.000000 479.351837
79 -46.798553 475.070984 -43.538895 0.000000 0.000003 -0.000000 479.351837
80 -46.798553 475.070984 -43.538895 0.000000 0.000003 -0.000000 479.351837
81 -46.798553 475.070984 -43.538895 0.000000 0.000003 -0.000000 479.351837
82 -46.798553 475.070984 -43.538895 0.000000 0.000003 -0.000000 479.351837
83 -46.798553 475.070984 -43.538895 0.000000 0.000003 -0.000000 479.351837
[front_lower_right_part1]
78 26.433468 475.070984 -43.538742 0.000000 -0.000000 -0.000000 477.793671
79 26.433468 475.070984 -43.538742 0.000000 -0.000000 -0.000000 477.793671
80 26.433468 475.070984 -43.538742 0.000000 -0.000000 -0.000000 477.793671
81 26.433468 475.070984 -43.538742 0.000000 -0.000000 -0.000000 477.793671
82 26.433468 475.070984 -43.538742 0.000000 -0.000000 -0.000000 477.793671
83 26.433468 475.070984 -43.538742 0.000000 -0.000000 -0.000000 477.793671
[front_top_left_part]
78 -47.897224 494.788910 7.030945 -0.000000 0.000003 -0.000001 497.151520
79 -47.897224 494.788910 7.030945 -0.000000 0.000003 -0.000001 497.151520
80 -47.897224 494.788910 7.030945 -0.000000 0.000003 -0.000001 497.151520
81 -47.897224 494.788910 7.030945 -0.000000 0.000003 -0.000001 497.151520
82 -47.897224 494.788910 7.030945 -0.000000 0.000003 -0.000001 497.151520
83 -47.897224 494.788910 7.030945 -0.000000 0.000003 -0.000001 497.151520
[front_top_right_part1]
78 27.532139 494.788910 7.031097 0.000000 -0.000000 -0.000000 495.604218
79 27.532139 494.788910 7.031097 0.000000 -0.000000 -0.000000 495.604218
80 27.532139 494.788910 7.031097 0.000000 -0.000000 -0.000000 495.604218
81 27.532139 494.788910 7.031097 0.000000 -0.000000 -0.000000 495.604218
82 27.532139 494.788910 7.031097 0.000000 -0.000000 -0.000000 495.604218
83 27.532139 494.788910 7.031097 0.000000 -0.000000 -0.000000 495.604218
[scope_part1]
78 -10.754299 87.338936 156.453094 -4.904476 -0.218316 0.018763 179.502960
79 -10.754299 87.338936 156.453094 -4.904466 -0.188719 0.016258 179.502960
80 -10.754299 87.338936 156.453094 -4.904456 -0.160903 0.013830 179.502960
81 -10.754299 87.338936 156.453094 -4.904449 -0.134854 0.011634 179.502960
82 -10.754299 87.338936 156.453094 -4.904444 -0.110812 0.009517 179.502960
83 -10.754299 87.338936 156.453094 -4.904440 -0.088770 0.007644 179.502960
[scope_part2]
78 -10.754299 82.597351 156.859894 -4.904470 0.202905 -0.017372 177.603500
79 -10.754299 82.597351 156.859894 -4.904461 0.175396 -0.014956 177.603500
80 -10.754299 82.597351 156.859894 -4.904452 0.149504 -0.012767 177.603500
81 -10.754299 82.597351 156.859894 -4.904447 0.125387 -0.010654 177.603500
82 -10.754299 82.597351 156.859894 -4.904442 0.102956 -0.008764 177.603500
83 -10.754299 82.597351 156.859894 -4.904438 0.082456 -0.007113 177.603500
[front_lower_left_part2]
78 -55.193516 141.618484 32.268444 0.000000 -0.000000 1.110730 155.381378
79 -55.193516 141.618484 32.268444 0.000000 -0.000000 0.971321 155.381378
80 -55.193516 141.618484 32.268444 0.000000 -0.000000 0.837014 155.381378
81 -55.193516 141.618484 32.268444 0.000000 -0.000000 0.709049 155.381378
82 -55.193516 141.618484 32.268444 0.000000 -0.000000 0.588337 155.381378
83 -55.193516 141.618484 32.268444 0.000000 -0.000000 0.475980 155.381378
[front_lower_left_part3]
78 -10.943755 108.509445 -11.124877 33.511013 -15.650875 -14.052154 109.625854
79 -10.943755 108.509445 -11.124725 33.490208 -15.700039 -13.974918 109.625839
80 -10.943755 108.509369 -11.125030 33.470276 -15.746738 -13.901618 109.625801
81 -10.943755 108.509445 -11.124725 33.451488 -15.790627 -13.832520 109.625839
82 -10.943755 108.509521 -11.125030 33.433914 -15.831717 -13.767970 109.625946
83 -10.943755 108.509590 -11.124877 33.417702 -15.869368 -13.708602 109.625999
[front_lower_right_part2]
78 55.193707 141.618347 32.268291 0.000000 0.000000 -0.528420 155.381271
79 55.193707 141.618347 32.268291 0.000000 0.000000 -0.462119 155.381271
80 55.193707 141.618347 32.268291 0.000000 0.000000 -0.398290 155.381271
81 55.193707 141.618347 32.268291 0.000000 0.000000 -0.337400 155.381271
82 55.193707 141.618347 32.268291 0.000000 0.000000 -0.279910 155.381271
83 55.193707 141.618347 32.268291 0.000000 0.000000 -0.226430 155.381271
[front_lower_right_part3]
78 10.943793 108.509369 -11.124877 33.417690 15.869552 13.708287 109.625778
79 10.943831 108.509369 -11.124877 33.408802 15.890121 13.675836 109.625786
80 10.943870 108.509445 -11.124725 33.400597 15.909073 13.646005 109.625854
81 10.943870 108.509445 -11.124877 33.392380 15.928021 13.616170 109.625862
82 10.943909 108.509445 -11.124877 33.385033 15.945087 13.589245 109.625870
83 10.943831 108.509445 -11.124877 33.378223 15.960704 13.564568 109.625862
[front_top_left_part2]
78 -41.736919 137.489685 54.793549 0.000000 -0.000003 0.000001 153.778152
79 -41.847008 137.489395 54.799648 0.000000 -0.000003 0.000001 153.809967
80 -41.951416 137.489166 54.805450 0.000000 -0.000003 0.000001 153.840286
81 -42.049587 137.488998 54.810787 0.000000 -0.000003 0.000001 153.868835
82 -42.140987 137.488785 54.815826 0.000000 -0.000003 0.000001 153.895432
83 -42.225063 137.488632 54.820404 0.000000 -0.000003 0.000001 153.919968
[front_top_left_part3]
78 -28.216457 149.657059 49.959717 -25.863382 -3.785176 -66.291336 160.279053
79 -28.216457 149.656982 49.959717 -25.861231 -3.800792 -66.323616 160.278992
80 -28.216457 149.657059 49.959717 -25.859207 -3.815596 -66.354210 160.279053
81 -28.216476 149.656982 49.959717 -25.857351 -3.829335 -66.382751 160.278992
82 -28.216457 149.656982 49.959717 -25.855570 -3.842103 -66.409019 160.278992
83 -28.216476 149.656906 49.959717 -25.853947 -3.853796 -66.433266 160.278915
[front_top_right_part2]
78 41.679737 137.486115 54.888153 0.000000 0.000000 -0.000020 153.793182
79 41.797417 137.486420 54.881744 0.000000 0.000000 -0.000020 153.823090
80 41.908962 137.486649 54.875484 0.000000 0.000000 -0.000020 153.851425
81 42.013863 137.486877 54.869843 0.000000 0.000000 -0.000020 153.878220
82 42.111595 137.487030 54.864346 0.000000 0.000000 -0.000020 153.903107
83 42.201393 137.487259 54.859467 0.000000 0.000000 -0.000020 153.926163
[front_top_right_part3]
78 28.216553 149.657135 49.959564 -25.856834 3.832915 66.390083 160.279099
79 28.216515 149.657135 49.959564 -25.855572 3.842090 66.408966 160.279083
80 28.216553 149.657059 49.959717 -25.854433 3.850722 66.426872 160.279083
81 28.216515 149.657135 49.959564 -25.853216 3.858850 66.443695 160.279083
82 28.216515 149.657135 49.959717 -25.852257 3.866340 66.459183 160.279129
83 28.216515 149.657059 49.959564 -25.851273 3.873177 66.473274 160.279022
